<svg width="32" height="32" viewBox="0 0 32 32" fill="none" xmlns="http://www.w3.org/2000/svg">
<path fill-rule="evenodd" clip-rule="evenodd" d="M14.628 2.06642C15.0796 2.02247 15.5373 2 16 2C16.4627 2 16.9204 2.02247 17.372 2.06642C17.7384 2.10208 18.0066 2.42807 17.9709 2.79453C17.9353 3.16098 17.6093 3.42915 17.2428 3.39348C16.8341 3.35371 16.4195 3.33333 16 3.33333C15.5805 3.33333 15.1659 3.35371 14.7572 3.39348C14.3907 3.42915 14.0647 3.16099 14.0291 2.79453C13.9934 2.42807 14.2616 2.10208 14.628 2.06642ZM19.2337 3.04421C19.3405 2.69183 19.7127 2.49272 20.0651 2.59948C20.9509 2.86785 21.7994 3.22157 22.6012 3.651C22.9257 3.82485 23.0479 4.22889 22.8741 4.55345C22.7002 4.87802 22.2962 5.0002 21.9716 4.82636C21.2465 4.43793 20.4792 4.11813 19.6785 3.87554C19.3261 3.76878 19.127 3.39658 19.2337 3.04421ZM12.7663 3.04421C12.873 3.39658 12.6739 3.76878 12.3215 3.87554C11.5208 4.11813 10.7535 4.43793 10.0284 4.82636C9.7038 5.0002 9.29976 4.87802 9.12592 4.55345C8.95207 4.22889 9.07426 3.82485 9.39882 3.651C10.2006 3.22157 11.0491 2.86785 11.9349 2.59948C12.2873 2.49272 12.6595 2.69183 12.7663 3.04421ZM23.9436 5.26958C24.1773 4.9851 24.5974 4.94396 24.8819 5.1777C25.5902 5.75965 26.2404 6.40977 26.8223 7.11807C27.056 7.40256 27.0149 7.82266 26.7304 8.05639C26.4459 8.29013 26.0258 8.24899 25.7921 7.96451C25.2653 7.32331 24.6767 6.73473 24.0355 6.2079C23.751 5.97416 23.7099 5.55406 23.9436 5.26958ZM8.05639 5.26958C8.29013 5.55406 8.24899 5.97417 7.96451 6.2079C7.32331 6.73473 6.73473 7.32331 6.2079 7.96451C5.97416 8.24899 5.55406 8.29013 5.26958 8.0564C4.9851 7.82266 4.94396 7.40256 5.1777 7.11807C5.75965 6.40977 6.40977 5.75965 7.11807 5.1777C7.40256 4.94396 7.82266 4.9851 8.05639 5.26958ZM27.4465 9.12592C27.7711 8.95207 28.1752 9.07426 28.349 9.39882C28.7784 10.2006 29.1322 11.0491 29.4005 11.9349C29.5073 12.2873 29.3082 12.6595 28.9558 12.7663C28.6034 12.873 28.2312 12.6739 28.1245 12.3215C27.8819 11.5208 27.5621 10.7535 27.1736 10.0284C26.9998 9.7038 27.122 9.29976 27.4465 9.12592ZM4.55345 9.12592C4.87802 9.29976 5.0002 9.7038 4.82636 10.0284C4.43793 10.7536 4.11813 11.5208 3.87554 12.3215C3.76878 12.6739 3.39658 12.873 3.04421 12.7663C2.69183 12.6595 2.49272 12.2873 2.59948 11.9349C2.86785 11.0491 3.22157 10.2006 3.651 9.39882C3.82485 9.07426 4.22889 8.95207 4.55345 9.12592ZM2.79453 14.0291C3.16098 14.0647 3.42915 14.3907 3.39348 14.7572C3.35371 15.1659 3.33333 15.5805 3.33333 16C3.33333 16.4195 3.35371 16.8341 3.39348 17.2428C3.42915 17.6093 3.16099 17.9353 2.79453 17.9709C2.42807 18.0066 2.10208 17.7384 2.06642 17.372C2.02247 16.9204 2 16.4627 2 16C2 15.5373 2.02247 15.0796 2.06642 14.628C2.10208 14.2616 2.42807 13.9934 2.79453 14.0291ZM29.2055 14.0291C29.5719 13.9934 29.8979 14.2616 29.9336 14.628C29.9775 15.0796 30 15.5373 30 16C30 16.4627 29.9775 16.9204 29.9336 17.372C29.8979 17.7384 29.5719 18.0066 29.2055 17.9709C28.839 17.9353 28.5709 17.6093 28.6065 17.2428C28.6463 16.8341 28.6667 16.4195 28.6667 16C28.6667 15.5805 28.6463 15.1659 28.6065 14.7572C28.5709 14.3907 28.839 14.0647 29.2055 14.0291ZM28.9558 19.2337C29.3082 19.3405 29.5073 19.7127 29.4005 20.0651C29.1322 20.9509 28.7784 21.7994 28.349 22.6012C28.1752 22.9257 27.7711 23.0479 27.4466 22.8741C27.122 22.7002 26.9998 22.2962 27.1736 21.9716C27.5621 21.2465 27.8819 20.4792 28.1245 19.6785C28.2312 19.3261 28.6034 19.127 28.9558 19.2337ZM3.04421 19.2337C3.39658 19.127 3.76878 19.3261 3.87554 19.6785C4.11813 20.4792 4.43793 21.2465 4.82636 21.9716C5.0002 22.2962 4.87802 22.7002 4.55345 22.8741C4.22889 23.0479 3.82485 22.9257 3.651 22.6012C3.22157 21.7994 2.86785 20.9509 2.59948 20.0651C2.49272 19.7127 2.69183 19.3405 3.04421 19.2337ZM26.7304 23.9436C27.0149 24.1773 27.056 24.5974 26.8223 24.8819C26.2404 25.5902 25.5902 26.2404 24.8819 26.8223C24.5974 27.056 24.1773 27.0149 23.9436 26.7304C23.7099 26.4459 23.751 26.0258 24.0355 25.7921C24.6767 25.2653 25.2653 24.6767 25.7921 24.0355C26.0258 23.751 26.4459 23.7099 26.7304 23.9436ZM5.26958 23.9436C5.55406 23.7099 5.97417 23.751 6.2079 24.0355C6.73473 24.6767 7.32331 25.2653 7.96451 25.7921C8.24899 26.0258 8.29013 26.4459 8.0564 26.7304C7.82266 27.0149 7.40256 27.056 7.11807 26.8223C6.40977 26.2404 5.75965 25.5902 5.1777 24.8819C4.94396 24.5974 4.9851 24.1773 5.26958 23.9436ZM22.8741 27.4465C23.0479 27.7711 22.9257 28.1752 22.6012 28.349C21.7994 28.7784 20.9509 29.1322 20.0651 29.4005C19.7127 29.5073 19.3405 29.3082 19.2337 28.9558C19.127 28.6034 19.3261 28.2312 19.6785 28.1245C20.4792 27.8819 21.2465 27.5621 21.9716 27.1736C22.2962 26.9998 22.7002 27.122 22.8741 27.4465ZM9.12592 27.4466C9.29976 27.122 9.7038 26.9998 10.0284 27.1736C10.7536 27.5621 11.5208 27.8819 12.3215 28.1245C12.6739 28.2312 12.873 28.6034 12.7663 28.9558C12.6595 29.3082 12.2873 29.5073 11.9349 29.4005C11.0491 29.1322 10.2006 28.7784 9.39882 28.349C9.07426 28.1752 8.95207 27.7711 9.12592 27.4466ZM14.0291 29.2055C14.0647 28.839 14.3907 28.5709 14.7572 28.6065C15.1659 28.6463 15.5805 28.6667 16 28.6667C16.4195 28.6667 16.8341 28.6463 17.2428 28.6065C17.6093 28.5709 17.9353 28.839 17.9709 29.2055C18.0066 29.5719 17.7384 29.8979 17.372 29.9336C16.9204 29.9775 16.4627 30 16 30C15.5373 30 15.0796 29.9775 14.628 29.9336C14.2616 29.8979 13.9934 29.5719 14.0291 29.2055Z" fill="#64748B"/>
<path fill-rule="evenodd" clip-rule="evenodd" d="M15.9887 10.3333C14.6961 10.3333 13.6506 11.3793 13.6506 12.6667C13.6506 13.954 14.6961 15 15.9887 15C17.2813 15 18.3268 13.954 18.3268 12.6667C18.3268 11.3794 17.2813 10.3333 15.9887 10.3333ZM11.6506 12.6667C11.6506 10.2721 13.5943 8.33333 15.9887 8.33333C18.3832 8.33333 20.3268 10.2721 20.3268 12.6667C20.3268 15.0612 18.3832 17 15.9887 17C13.5943 17 11.6506 15.0612 11.6506 12.6667ZM21.2647 23.3444C18.5364 20.3842 13.4572 20.4938 10.7233 23.3572C10.3419 23.7567 9.7089 23.7713 9.30945 23.3899C8.90999 23.0086 8.89534 22.3756 9.27672 21.9761C12.7607 18.327 19.1788 18.13 22.7353 21.989C23.1096 22.3951 23.0838 23.0277 22.6777 23.402C22.2716 23.7763 21.639 23.7505 21.2647 23.3444Z" fill="#64748B"/>
<circle cx="24.0002" cy="24" r="6.66667" fill="#64748B"/>
<path d="M24.0002 26.6667V21.3333M21.3335 24H26.6668" stroke="white" stroke-linecap="round"/>
</svg>
