<svg width="20" height="20" viewBox="0 0 20 20" fill="none" xmlns="http://www.w3.org/2000/svg">
<path fill-rule="evenodd" clip-rule="evenodd" d="M9.55827 3.93333C9.67546 3.81629 9.83431 3.75055 9.99994 3.75055C10.1656 3.75055 10.3244 3.81629 10.4416 3.93333L13.5666 7.05833C13.677 7.17681 13.7371 7.33352 13.7343 7.49543C13.7314 7.65735 13.6658 7.81184 13.5513 7.92635C13.4368 8.04086 13.2823 8.10646 13.1204 8.10931C12.9585 8.11217 12.8018 8.05207 12.6833 7.94167L9.99994 5.25833L7.3166 7.94167C7.19813 8.05207 7.04142 8.11217 6.8795 8.10931C6.71759 8.10646 6.5631 8.04086 6.44859 7.92635C6.33408 7.81184 6.26848 7.65735 6.26563 7.49543C6.26277 7.33352 6.32287 7.17681 6.43327 7.05833L9.55827 3.93333ZM6.43327 12.0583C6.55046 11.9413 6.70931 11.8755 6.87494 11.8755C7.04056 11.8755 7.19942 11.9413 7.3166 12.0583L9.99994 14.7417L12.6833 12.0583C12.7405 11.9969 12.8095 11.9477 12.8862 11.9135C12.9628 11.8794 13.0456 11.861 13.1295 11.8595C13.2134 11.858 13.2968 11.8735 13.3746 11.9049C13.4524 11.9363 13.5231 11.9831 13.5825 12.0425C13.6418 12.1018 13.6886 12.1725 13.72 12.2503C13.7515 12.3282 13.7669 12.4115 13.7654 12.4954C13.7639 12.5794 13.7456 12.6621 13.7114 12.7388C13.6773 12.8154 13.628 12.8844 13.5666 12.9417L10.4416 16.0667C10.3244 16.1837 10.1656 16.2494 9.99994 16.2494C9.83431 16.2494 9.67546 16.1837 9.55827 16.0667L6.43327 12.9417C6.31623 12.8245 6.25049 12.6656 6.25049 12.5C6.25049 12.3344 6.31623 12.1755 6.43327 12.0583Z" fill="#64748B"/>
</svg>
