<svg width="64" height="24" viewBox="0 0 64 24" fill="none" xmlns="http://www.w3.org/2000/svg">
<rect width="64" height="24" rx="4" fill="#DCFCE7"/>
<circle cx="7" cy="12" r="3" fill="#22C55E"/>
<path d="M17.4687 16H14.8789V8H17.5508C18.3346 8 19.0078 8.16016 19.5703 8.48047C20.1328 8.79818 20.5638 9.25521 20.8633 9.85156C21.1654 10.4453 21.3164 11.1576 21.3164 11.9883C21.3164 12.8216 21.1641 13.5378 20.8594 14.1367C20.5573 14.7357 20.1198 15.1966 19.5469 15.5195C18.974 15.8398 18.2813 16 17.4687 16ZM16.0859 14.9453H17.4023C18.0117 14.9453 18.5182 14.8307 18.9219 14.6016C19.3255 14.3698 19.6276 14.0352 19.8281 13.5977C20.0286 13.1576 20.1289 12.6211 20.1289 11.9883C20.1289 11.3607 20.0286 10.8281 19.8281 10.3906C19.6302 9.95312 19.3346 9.62109 18.9414 9.39453C18.5482 9.16797 18.0599 9.05469 17.4766 9.05469H16.0859V14.9453ZM29.7666 12C29.7666 12.8542 29.6104 13.5885 29.2979 14.2031C28.9854 14.8151 28.557 15.2865 28.0127 15.6172C27.471 15.9453 26.8551 16.1094 26.165 16.1094C25.4723 16.1094 24.8538 15.9453 24.3096 15.6172C23.7679 15.2865 23.3408 14.8138 23.0283 14.1992C22.7158 13.5846 22.5596 12.8516 22.5596 12C22.5596 11.1458 22.7158 10.4128 23.0283 9.80078C23.3408 9.1862 23.7679 8.71484 24.3096 8.38672C24.8538 8.05599 25.4723 7.89062 26.165 7.89062C26.8551 7.89062 27.471 8.05599 28.0127 8.38672C28.557 8.71484 28.9854 9.1862 29.2979 9.80078C29.6104 10.4128 29.7666 11.1458 29.7666 12ZM28.5713 12C28.5713 11.349 28.4658 10.8008 28.2549 10.3555C28.0465 9.90755 27.7601 9.56901 27.3955 9.33984C27.0335 9.10807 26.6234 8.99219 26.165 8.99219C25.7041 8.99219 25.2926 9.10807 24.9307 9.33984C24.5687 9.56901 24.2822 9.90755 24.0713 10.3555C23.863 10.8008 23.7588 11.349 23.7588 12C23.7588 12.651 23.863 13.2005 24.0713 13.6484C24.2822 14.0937 24.5687 14.4323 24.9307 14.6641C25.2926 14.8932 25.7041 15.0078 26.165 15.0078C26.6234 15.0078 27.0335 14.8932 27.3955 14.6641C27.7601 14.4323 28.0465 14.0937 28.2549 13.6484C28.4658 13.2005 28.5713 12.651 28.5713 12ZM37.7285 8V16H36.6191L32.5527 10.1328H32.4785V16H31.2715V8H32.3887L36.459 13.875H36.5332V8H37.7285ZM39.4893 16V8H44.5049V9.03906H40.6963V11.4766H44.2432V12.5117H40.6963V14.9609H44.5518V16H39.4893Z" fill="#475569"/>
<g clip-path="url(#clip0_70_1374)">
<path d="M55 13.6666L52.5 11.1666H57.5L55 13.6666Z" fill="#475569"/>
</g>
<defs>
<clipPath id="clip0_70_1374">
<rect width="10" height="10" fill="white" transform="translate(50 7)"/>
</clipPath>
</defs>
</svg>
