<svg width="20" height="20" viewBox="0 0 20 20" fill="none" xmlns="http://www.w3.org/2000/svg">
<path d="M13.2322 2.5H8.56908C6.10099 2.5 4.86695 2.5 4.10022 3.23223C3.3335 3.96447 3.3335 5.14298 3.3335 7.5L3.42199 12.5H13.2322C15.0848 12.5 16.0111 12.5 16.4041 12.0212C16.5128 11.8888 16.5925 11.7367 16.6382 11.5742C16.8034 10.9867 16.2477 10.279 15.1361 8.86367C14.6737 8.27488 14.4426 7.98049 14.4013 7.64592C14.3894 7.54897 14.3894 7.45102 14.4013 7.35408C14.4426 7.01951 14.6737 6.72512 15.1361 6.13637C16.2477 4.72101 16.8034 4.01333 16.6382 3.42582C16.5925 3.26326 16.5128 3.11118 16.4041 2.97873C16.0111 2.5 15.0848 2.5 13.2322 2.5Z" fill="#22C55E" stroke="#22C55E" stroke-width="1.5" stroke-linecap="round" stroke-linejoin="round"/>
<path d="M3.3335 17.5V6.66667" stroke="#22C55E" stroke-width="1.5" stroke-linecap="round"/>
</svg>
