<svg width="24" height="24" viewBox="0 0 24 24" fill="none" xmlns="http://www.w3.org/2000/svg">
<rect width="24" height="24" rx="6" fill="#F1F5F9"/>
<g clip-path="url(#clip0_326_5555)">
<path d="M5.84965 11.4293C5.18088 12.1762 5.1665 13.3031 5.78027 14.0958C6.99824 15.6689 8.33132 17.0019 9.90439 18.2199C10.6971 18.8337 11.824 18.8193 12.5709 18.1505C14.5988 16.3348 16.4558 14.4373 18.2481 12.3519C18.4253 12.1458 18.5361 11.8931 18.561 11.6224C18.671 10.4253 18.897 6.97645 17.9604 6.03983C17.0237 5.10321 13.5748 5.32918 12.3778 5.43918C12.107 5.46406 11.8544 5.57489 11.6482 5.75208C9.56291 7.54431 7.66537 9.40141 5.84965 11.4293Z" stroke="#64748B" stroke-width="1.5"/>
<path d="M15.6665 7.33334C16.2188 7.33334 16.6665 7.78105 16.6665 8.33334C16.6665 8.88562 16.2188 9.33334 15.6665 9.33334C15.1142 9.33334 14.6665 8.88562 14.6665 8.33334C14.6665 7.78105 15.1142 7.33334 15.6665 7.33334Z" stroke="#64748B" stroke-width="1.5" stroke-linecap="round" stroke-linejoin="round"/>
<path d="M8.6665 13.3333L10.6665 15.3333" stroke="#64748B" stroke-width="1.5" stroke-linecap="round" stroke-linejoin="round"/>
</g>
<defs>
<clipPath id="clip0_326_5555">
<rect width="16" height="16" fill="white" transform="translate(4 4)"/>
</clipPath>
</defs>
</svg>
