<svg width="24" height="24" viewBox="0 0 24 24" fill="none" xmlns="http://www.w3.org/2000/svg">
<rect width="24" height="24" rx="6" fill="#F1F5F9"/>
<g clip-path="url(#clip0_326_5557)">
<path d="M13.3826 6.5903C13.8794 6.05206 14.1278 5.78294 14.3918 5.62596C15.0286 5.24718 15.8129 5.2354 16.4604 5.59488C16.7288 5.74387 16.9848 6.00542 17.4968 6.52851C18.0089 7.0516 18.265 7.31315 18.4108 7.58729C18.7627 8.24875 18.7512 9.04986 18.3804 9.70047C18.2267 9.97011 17.9632 10.2239 17.4364 10.7313L11.1672 16.7695C10.1688 17.7313 9.6695 18.2121 9.04554 18.4558C8.42158 18.6995 7.73563 18.6816 6.36374 18.6457L6.17708 18.6409C5.75944 18.6299 5.55061 18.6245 5.42922 18.4867C5.30783 18.3489 5.3244 18.1362 5.35755 17.7108L5.37555 17.4798C5.46884 16.2823 5.51548 15.6837 5.7493 15.1455C5.98312 14.6073 6.38646 14.1703 7.19312 13.2963L13.3826 6.5903Z" stroke="#64748B" stroke-width="1.5" stroke-linejoin="round"/>
<path d="M12.6665 6.66666L17.3332 11.3333" stroke="#64748B" stroke-width="1.5" stroke-linejoin="round"/>
<path d="M13.3335 18.6667H18.6668" stroke="#64748B" stroke-width="1.5" stroke-linecap="round" stroke-linejoin="round"/>
</g>
<defs>
<clipPath id="clip0_326_5557">
<rect width="16" height="16" fill="white" transform="translate(4 4)"/>
</clipPath>
</defs>
</svg>
