<svg width="24" height="24" viewBox="0 0 24 24" fill="none" xmlns="http://www.w3.org/2000/svg">
<rect width="24" height="24" rx="3" fill="#E5493A"/>
<path d="M8.0375 9.53333C8.08 9.46554 8.12424 9.39885 8.17016 9.33333H15.8302C15.8762 9.39867 15.9202 9.466 15.9628 9.53333L17.3095 8.756L17.9762 9.91067L16.5008 10.7627C16.6088 11.156 16.6668 11.5713 16.6668 12V12.6667H18.6668V14H16.6668C16.6668 14.6353 16.5402 15.2413 16.3095 15.7933L17.9762 16.756L17.3095 17.9107L15.6255 16.9387C14.8863 17.8517 13.8296 18.4519 12.6668 18.6193V13.3333H11.3335V18.62C10.1706 18.4524 9.11392 17.8519 8.37483 16.9387L6.69083 17.9107L6.02416 16.756L7.69083 15.794C7.45418 15.2255 7.33272 14.6158 7.3335 14H5.3335V12.6667H7.3335V12C7.3335 11.5713 7.3915 11.1567 7.4995 10.7627L6.02416 9.91067L6.69083 8.756L8.0375 9.53333ZM9.3335 8C9.3335 7.29275 9.61445 6.61448 10.1145 6.11438C10.6146 5.61428 11.2929 5.33333 12.0002 5.33333C12.7074 5.33333 13.3857 5.61428 13.8858 6.11438C14.3859 6.61448 14.6668 7.29275 14.6668 8H9.3335Z" fill="white"/>
</svg>
