<svg width="20" height="20" viewBox="0 0 20 20" fill="none" xmlns="http://www.w3.org/2000/svg">
<g clip-path="url(#clip0_326_5538)">
<path d="M18.3332 10C18.3332 5.39763 14.6022 1.66667 9.99984 1.66667C5.39746 1.66667 1.6665 5.39763 1.6665 10C1.6665 14.6023 5.39746 18.3333 9.99984 18.3333C14.6022 18.3333 18.3332 14.6023 18.3332 10Z" stroke="#64748B" stroke-width="1.5"/>
<path d="M10.72 6.43507L11.4532 7.9137C11.5532 8.11953 11.8199 8.31696 12.0448 8.35475L13.3739 8.57741C14.2238 8.72025 14.4237 9.34191 13.8113 9.95516L12.7781 10.997C12.6032 11.1734 12.5073 11.5137 12.5615 11.7572L12.8572 13.0468C13.0906 14.0677 12.5532 14.4625 11.6574 13.929L10.4117 13.1855C10.1867 13.0511 9.81591 13.0511 9.58683 13.1855L8.34108 13.929C7.44954 14.4625 6.90793 14.0634 7.14124 13.0468L7.43704 11.7572C7.49121 11.5137 7.39538 11.1734 7.2204 10.997L6.18718 9.95516C5.57891 9.34191 5.77472 8.72025 6.62463 8.57741L7.95366 8.35475C8.17446 8.31696 8.44108 8.11953 8.54108 7.9137L9.27433 6.43507C9.67433 5.63275 10.3242 5.63275 10.72 6.43507Z" stroke="#64748B" stroke-width="1.5" stroke-linecap="round" stroke-linejoin="round"/>
</g>
<defs>
<clipPath id="clip0_326_5538">
<rect width="20" height="20" fill="white"/>
</clipPath>
</defs>
</svg>
