<svg width="16" height="16" viewBox="0 0 16 16" fill="none" xmlns="http://www.w3.org/2000/svg">
<path d="M8.66667 13H8C6.11438 13 5.17157 13 4.58579 12.4142C4 11.8284 4 10.8856 4 9V7.66667M4 7.66667V5.33334M4 7.66667H8.66667" stroke="#64748B" stroke-width="1.5" stroke-linecap="round" stroke-linejoin="round"/>
<path d="M8.6665 13C8.6665 12.2143 8.6665 11.8215 8.90084 11.5774C9.1351 11.3333 9.51224 11.3333 10.2665 11.3333H11.0665C11.8208 11.3333 12.1979 11.3333 12.4322 11.5774C12.6665 11.8215 12.6665 12.2143 12.6665 13C12.6665 13.7857 12.6665 14.1785 12.4322 14.4226C12.1979 14.6667 11.8208 14.6667 11.0665 14.6667H10.2665C9.51224 14.6667 9.1351 14.6667 8.90084 14.4226C8.6665 14.1785 8.6665 13.7857 8.6665 13Z" stroke="#64748B" stroke-width="1.5"/>
<path d="M8.6665 7.66667C8.6665 6.881 8.6665 6.48813 8.90084 6.24407C9.1351 6 9.51224 6 10.2665 6H11.0665C11.8208 6 12.1979 6 12.4322 6.24407C12.6665 6.48813 12.6665 6.881 12.6665 7.66667C12.6665 8.45233 12.6665 8.8452 12.4322 9.08927C12.1979 9.33333 11.8208 9.33333 11.0665 9.33333H10.2665C9.51224 9.33333 9.1351 9.33333 8.90084 9.08927C8.6665 8.8452 8.6665 8.45233 8.6665 7.66667Z" stroke="#64748B" stroke-width="1.5"/>
<path d="M2.8573 1.33334H5.14302C6.52603 1.33334 6.66683 2.07329 6.66683 3.33334C6.66683 4.59338 6.52603 5.33334 5.14302 5.33334H2.8573C1.4743 5.33334 1.3335 4.59338 1.3335 3.33334C1.3335 2.07329 1.4743 1.33334 2.8573 1.33334Z" stroke="#64748B" stroke-width="1.5"/>
</svg>
