<svg width="20" height="20" viewBox="0 0 20 20" fill="none" xmlns="http://www.w3.org/2000/svg">
<g clip-path="url(#clip0_535_2234)">
<path d="M10 6.66667V10L11.25 11.25" stroke="#64748B" stroke-width="1.5" stroke-linecap="round" stroke-linejoin="round"/>
<path d="M16.288 13.7112C17.6517 14.4475 18.3335 14.8157 18.3335 15.4167C18.3335 16.0176 17.6517 16.3858 16.288 17.1222L15.3594 17.6237C14.3122 18.1892 13.7886 18.4719 13.5368 18.2663C12.9202 17.7628 13.8808 16.4634 14.1171 16.0031C14.3566 15.5367 14.3523 15.2882 14.1171 14.8302C13.8808 14.3699 12.9202 13.0705 13.5368 12.567C13.7886 12.3614 14.3122 12.6442 15.3594 13.2097L16.288 13.7112Z" stroke="#64748B" stroke-width="1.5"/>
<path d="M10.8549 18.29C10.5738 18.3187 10.2885 18.3333 9.99984 18.3333C5.39746 18.3333 1.6665 14.6023 1.6665 10C1.6665 5.39763 5.39746 1.66667 9.99984 1.66667C14.6022 1.66667 18.3332 5.39763 18.3332 10C18.3332 10.5708 18.2758 11.1282 18.1665 11.6667" stroke="#64748B" stroke-width="1.5" stroke-linecap="round"/>
</g>
<defs>
<clipPath id="clip0_535_2234">
<rect width="20" height="20" fill="white"/>
</clipPath>
</defs>
</svg>
